<svg width="220" height="23" viewBox="0 0 220 23" fill="none" xmlns="http://www.w3.org/2000/svg">
<path d="M11.1 22.45C9.1 22.45 7.35 22.12 5.85 21.46C4.35 20.8 3.17 19.86 2.31 18.64C1.45 17.4 0.98 15.96 0.9 14.32H5.67C5.77 15.2 6.03 15.96 6.45 16.6C6.87 17.22 7.45 17.7 8.19 18.04C8.93 18.38 9.79 18.55 10.77 18.55C12.21 18.55 13.32 18.28 14.1 17.74C14.9 17.18 15.3 16.4 15.3 15.4C15.3 14.66 15.06 14.05 14.58 13.57C14.1 13.07 13.41 12.65 12.51 12.31C11.61 11.97 10.43 11.65 8.97 11.35H8.94C7.36 11.01 6.05 10.62 5.01 10.18C3.99 9.74 3.19 9.18 2.61 8.5C2.05 7.82 1.77 7 1.77 6.04C1.77 4.94 2.13 3.98 2.85 3.16C3.59 2.32 4.59 1.68 5.85 1.24C7.11 0.779999 8.54 0.549999 10.14 0.549999C12.1 0.549999 13.8 0.869999 15.24 1.51C16.7 2.15 17.84 3.06 18.66 4.24C19.48 5.42 19.94 6.83 20.04 8.47H15.06C14.94 7.23 14.46 6.26 13.62 5.56C12.78 4.86 11.67 4.51 10.29 4.51C9.43 4.51 8.68 4.64 8.04 4.9C7.4 5.14 6.91 5.5 6.57 5.98C6.23 6.44 6.06 7 6.06 7.66C6.06 8.4 6.31 9 6.81 9.46C7.31 9.92 8.08 10.33 9.12 10.69C10.18 11.05 11.7 11.45 13.68 11.89C13.76 11.91 13.83 11.93 13.89 11.95C13.97 11.95 14.05 11.96 14.13 11.98C14.17 12 14.21 12.01 14.25 12.01C14.29 12.01 14.33 12.02 14.37 12.04C15.53 12.32 16.51 12.65 17.31 13.03C18.11 13.39 18.74 13.88 19.2 14.5C19.66 15.12 19.89 15.9 19.89 16.84C19.89 17.94 19.52 18.92 18.78 19.78C18.06 20.62 17.03 21.28 15.69 21.76C14.35 22.22 12.82 22.45 11.1 22.45ZM29.4638 22V5.62H21.9038V0.999999H41.7938V5.62H34.2638V22H29.4638ZM41.2634 22L49.2134 0.999999H55.3934L63.3434 22H58.2734L56.0234 15.94H48.4934L46.2134 22H41.2634ZM48.7034 15.37H55.8134L52.2734 6.07L48.7034 15.37ZM66.8365 22V0.999999H74.9965C77.6365 0.999999 79.7165 1.54 81.2365 2.62C82.7565 3.68 83.5165 5.14 83.5165 7C83.5165 8.42 83.0965 9.62 82.2565 10.6C81.4165 11.56 80.2265 12.23 78.6865 12.61L85.2865 22H79.9465L73.6465 12.97C73.6065 12.99 73.5565 13 73.4965 13C73.4565 13 73.4165 13 73.3765 13H71.5465V22H66.8365ZM74.4565 12.4C75.7565 12.4 76.7865 12.07 77.5465 11.41C78.3265 10.75 78.7165 9.88 78.7165 8.8C78.7165 7.7 78.3265 6.82 77.5465 6.16C76.7865 5.5 75.7565 5.17 74.4565 5.17H71.5465V12.4H74.4565ZM88.8384 22V0.999999H95.8584C98.1784 0.999999 100.218 1.44 101.978 2.32C103.738 3.18 105.098 4.41 106.058 6.01C107.038 7.59 107.528 9.42 107.528 11.5C107.528 13.58 107.038 15.42 106.058 17.02C105.098 18.6 103.738 19.83 101.978 20.71C100.218 21.57 98.1784 22 95.8584 22H88.8384ZM95.8584 17.65C97.2584 17.65 98.4584 17.41 99.4584 16.93C100.458 16.43 101.218 15.72 101.738 14.8C102.278 13.86 102.548 12.76 102.548 11.5C102.548 10.24 102.278 9.15 101.738 8.23C101.218 7.29 100.458 6.58 99.4584 6.1C98.4584 5.6 97.2584 5.35 95.8584 5.35H93.6384V17.65H95.8584ZM108.705 22L116.655 0.999999H122.835L130.785 22H125.715L123.465 15.94H115.935L113.655 22H108.705ZM116.145 15.37H123.255L119.715 6.07L116.145 15.37ZM134.278 22V0.999999H139.078V22H134.278ZM144.971 22V0.999999H149.771V17.38H160.211V22H144.971ZM167.347 22V14.62L158.617 0.999999H164.227L169.897 10.15L175.477 0.999999H180.847L172.147 14.62V22H167.347ZM182.187 22.3C181.387 22.3 180.707 22.03 180.147 21.49C179.607 20.93 179.337 20.25 179.337 19.45C179.337 18.63 179.607 17.95 180.147 17.41C180.707 16.87 181.387 16.6 182.187 16.6C182.987 16.6 183.657 16.87 184.197 17.41C184.757 17.95 185.037 18.63 185.037 19.45C185.037 20.25 184.757 20.93 184.197 21.49C183.657 22.03 182.987 22.3 182.187 22.3ZM189.678 22V0.999999H194.478V22H189.678ZM200.372 22V0.999999H207.392C209.712 0.999999 211.752 1.44 213.512 2.32C215.272 3.18 216.632 4.41 217.592 6.01C218.572 7.59 219.062 9.42 219.062 11.5C219.062 13.58 218.572 15.42 217.592 17.02C216.632 18.6 215.272 19.83 213.512 20.71C211.752 21.57 209.712 22 207.392 22H200.372ZM207.392 17.65C208.792 17.65 209.992 17.41 210.992 16.93C211.992 16.43 212.752 15.72 213.272 14.8C213.812 13.86 214.082 12.76 214.082 11.5C214.082 10.24 213.812 9.15 213.272 8.23C212.752 7.29 211.992 6.58 210.992 6.1C209.992 5.6 208.792 5.35 207.392 5.35H205.172V17.65H207.392Z" fill="#DC497E" style="mix-blend-mode:darken"/>
</svg>
